# xmcd CD database file
#
# Track frame offsets:
#	182
#	36677
#	49345
#	60110
#	72727
#	86642
#	100940
#	117150
#	129587
#	167377
#	179710
#	195682
#	210040
#	223855
#	237370
#	263170
#	274537
#
# Disc length: 3959 seconds
#
# Revision: 1
# Processed by: cddbd v1.5.2PL0 Copyright (c) Steve Scherf et al.
# Submitted via: CDex 1.51
#
DISCID=fd0f7511
DTITLE=Dizzy Gillespie - Lorraine
DYEAR=1900
DGENRE=Jazz
TTITLE0=Long Long Summer
TTITLE1=All these things you are
TTITLE2=Rays idea
TTITLE3=dizzy atmosspehre
TTITLE4=App Bop Sh'bam
TTITLE5=Emananon
TTITLE6=Lorraine
TTITLE7=Things to love
TTITLE8=Rhumbop concerto
TTITLE9=Groovin`high
TTITLE10=Desafinado
TTITLE11=Hot House
TTITLE12=Good Dues Blues
TTITLE13=Blue'n Boogie
TTITLE14=Oop Bop A Dah
TTITLE15=Our Delight
TTITLE16=Three Hearts in a Triangele
EXTD=
EXTT0=
EXTT1=
EXTT2=
EXTT3=
EXTT4=
EXTT5=
EXTT6=
EXTT7=
EXTT8=
EXTT9=
EXTT10=
EXTT11=
EXTT12=
EXTT13=
EXTT14=
EXTT15=
EXTT16=
PLAYORDER=
